<svg width="34" height="34" viewBox="0 0 34 34" fill="none" xmlns="http://www.w3.org/2000/svg">
<path d="M17 0C14.7316 -2.70507e-08 12.4861 0.453993 10.3958 1.33523C8.30557 2.21647 6.41282 3.50714 4.82908 5.13119C3.24534 6.75524 2.00265 8.67983 1.17422 10.7916C0.345784 12.9033 -0.0516369 15.1595 0.00536876 17.4272C0.0623744 19.6949 0.572654 21.9283 1.50614 23.9957C2.43963 26.0632 3.77746 27.9229 5.44079 29.4653C7.10413 31.0078 9.05934 32.2017 11.1912 32.9768C13.3231 33.7519 15.5886 34.0925 17.8542 33.9785L17 17L17 0Z" fill="#FF4D00"/>
<path d="M34 17C34 14.7675 33.5603 12.5569 32.706 10.4944C31.8516 8.43185 30.5994 6.55778 29.0208 4.97918C27.4422 3.40059 25.5682 2.14838 23.5056 1.29405C21.4431 0.439718 19.2325 -9.75844e-08 17 0V17H34Z" fill="#00C73C"/>
<path d="M17 4.76C15.3926 4.76 13.801 5.0766 12.316 5.69172C10.8309 6.30683 9.48161 7.20843 8.34502 8.34501C7.20843 9.4816 6.30684 10.8309 5.69172 12.316C5.07661 13.801 4.76001 15.3926 4.76001 17C4.76001 18.6074 5.07661 20.199 5.69172 21.684C6.30684 23.1691 7.20843 24.5184 8.34502 25.655C9.48161 26.7916 10.8309 27.6932 12.316 28.3083C13.801 28.9234 15.3926 29.24 17 29.24L17 17V4.76Z" fill="white"/>
<path d="M17 28.999L26.9879 24C26.9879 24 27.3209 28.8323 24.4909 31.4985C21.661 34.1646 17 33.9979 17 33.9979V28.999Z" fill="#FF4D00"/>
<path d="M17 29.24C18.9611 29.24 20.8934 28.7688 22.6343 27.8661C24.3753 26.9634 25.87 25.6028 27 24L17 17L17 29.24Z" fill="#FFC600"/>
<ellipse cx="11.72" cy="14.72" rx="2.72" ry="2.72" fill="#555555"/>
<rect y="17" width="4.76" height="17" rx="1" fill="#FF4D00"/>
</svg>
