<svg width="128" height="45" viewBox="0 0 128 45" fill="none" xmlns="http://www.w3.org/2000/svg">
<path d="M11.0757 18.78C11.6157 18.02 12.3557 17.39 13.2957 16.89C14.2557 16.37 15.3457 16.11 16.5657 16.11C17.9857 16.11 19.2657 16.46 20.4057 17.16C21.5657 17.86 22.4757 18.86 23.1357 20.16C23.8157 21.44 24.1557 22.93 24.1557 24.63C24.1557 26.33 23.8157 27.84 23.1357 29.16C22.4757 30.46 21.5657 31.47 20.4057 32.19C19.2657 32.91 17.9857 33.27 16.5657 33.27C15.3457 33.27 14.2657 33.02 13.3257 32.52C12.4057 32.02 11.6557 31.39 11.0757 30.63V40.92H6.87566V16.38H11.0757V18.78ZM19.8657 24.63C19.8657 23.63 19.6557 22.77 19.2357 22.05C18.8357 21.31 18.2957 20.75 17.6157 20.37C16.9557 19.99 16.2357 19.8 15.4557 19.8C14.6957 19.8 13.9757 20 13.2957 20.4C12.6357 20.78 12.0957 21.34 11.6757 22.08C11.2757 22.82 11.0757 23.69 11.0757 24.69C11.0757 25.69 11.2757 26.56 11.6757 27.3C12.0957 28.04 12.6357 28.61 13.2957 29.01C13.9757 29.39 14.6957 29.58 15.4557 29.58C16.2357 29.58 16.9557 29.38 17.6157 28.98C18.2957 28.58 18.8357 28.01 19.2357 27.27C19.6557 26.53 19.8657 25.65 19.8657 24.63ZM34.5877 33.27C32.9877 33.27 31.5477 32.92 30.2677 32.22C28.9877 31.5 27.9777 30.49 27.2377 29.19C26.5177 27.89 26.1577 26.39 26.1577 24.69C26.1577 22.99 26.5277 21.49 27.2677 20.19C28.0277 18.89 29.0577 17.89 30.3577 17.19C31.6577 16.47 33.1077 16.11 34.7077 16.11C36.3077 16.11 37.7577 16.47 39.0577 17.19C40.3577 17.89 41.3777 18.89 42.1177 20.19C42.8777 21.49 43.2577 22.99 43.2577 24.69C43.2577 26.39 42.8677 27.89 42.0877 29.19C41.3277 30.49 40.2877 31.5 38.9677 32.22C37.6677 32.92 36.2077 33.27 34.5877 33.27ZM34.5877 29.61C35.3477 29.61 36.0577 29.43 36.7177 29.07C37.3977 28.69 37.9377 28.13 38.3377 27.39C38.7377 26.65 38.9377 25.75 38.9377 24.69C38.9377 23.11 38.5177 21.9 37.6777 21.06C36.8577 20.2 35.8477 19.77 34.6477 19.77C33.4477 19.77 32.4377 20.2 31.6177 21.06C30.8177 21.9 30.4177 23.11 30.4177 24.69C30.4177 26.27 30.8077 27.49 31.5877 28.35C32.3877 29.19 33.3877 29.61 34.5877 29.61ZM50.5386 18.78C51.0786 18.02 51.8186 17.39 52.7586 16.89C53.7186 16.37 54.8086 16.11 56.0286 16.11C57.4486 16.11 58.7286 16.46 59.8686 17.16C61.0286 17.86 61.9386 18.86 62.5986 20.16C63.2786 21.44 63.6186 22.93 63.6186 24.63C63.6186 26.33 63.2786 27.84 62.5986 29.16C61.9386 30.46 61.0286 31.47 59.8686 32.19C58.7286 32.91 57.4486 33.27 56.0286 33.27C54.8086 33.27 53.7286 33.02 52.7886 32.52C51.8686 32.02 51.1186 31.39 50.5386 30.63V40.92H46.3386V16.38H50.5386V18.78ZM59.3286 24.63C59.3286 23.63 59.1186 22.77 58.6986 22.05C58.2986 21.31 57.7586 20.75 57.0786 20.37C56.4186 19.99 55.6986 19.8 54.9186 19.8C54.1586 19.8 53.4386 20 52.7586 20.4C52.0986 20.78 51.5586 21.34 51.1386 22.08C50.7386 22.82 50.5386 23.69 50.5386 24.69C50.5386 25.69 50.7386 26.56 51.1386 27.3C51.5586 28.04 52.0986 28.61 52.7586 29.01C53.4386 29.39 54.1586 29.58 54.9186 29.58C55.6986 29.58 56.4186 29.38 57.0786 28.98C57.7586 28.58 58.2986 28.01 58.6986 27.27C59.1186 26.53 59.3286 25.65 59.3286 24.63ZM74.0506 33.27C72.4506 33.27 71.0106 32.92 69.7306 32.22C68.4506 31.5 67.4406 30.49 66.7006 29.19C65.9806 27.89 65.6206 26.39 65.6206 24.69C65.6206 22.99 65.9906 21.49 66.7306 20.19C67.4906 18.89 68.5206 17.89 69.8206 17.19C71.1206 16.47 72.5706 16.11 74.1706 16.11C75.7706 16.11 77.2206 16.47 78.5206 17.19C79.8206 17.89 80.8406 18.89 81.5806 20.19C82.3406 21.49 82.7206 22.99 82.7206 24.69C82.7206 26.39 82.3306 27.89 81.5506 29.19C80.7906 30.49 79.7506 31.5 78.4306 32.22C77.1306 32.92 75.6706 33.27 74.0506 33.27ZM74.0506 29.61C74.8106 29.61 75.5206 29.43 76.1806 29.07C76.8606 28.69 77.4006 28.13 77.8006 27.39C78.2006 26.65 78.4006 25.75 78.4006 24.69C78.4006 23.11 77.9806 21.9 77.1406 21.06C76.3206 20.2 75.3106 19.77 74.1106 19.77C72.9106 19.77 71.9006 20.2 71.0806 21.06C70.2806 21.9 69.8806 23.11 69.8806 24.69C69.8806 26.27 70.2706 27.49 71.0506 28.35C71.8506 29.19 72.8506 29.61 74.0506 29.61ZM92.3114 16.11C93.5514 16.11 94.6414 16.36 95.5814 16.86C96.5214 17.34 97.2614 17.97 97.8014 18.75V16.38H102.031V33.12C102.031 34.66 101.721 36.03 101.101 37.23C100.481 38.45 99.5514 39.41 98.3114 40.11C97.0714 40.83 95.5714 41.19 93.8114 41.19C91.4514 41.19 89.5114 40.64 87.9914 39.54C86.4914 38.44 85.6414 36.94 85.4414 35.04H89.6114C89.8314 35.8 90.3014 36.4 91.0214 36.84C91.7614 37.3 92.6514 37.53 93.6914 37.53C94.9114 37.53 95.9014 37.16 96.6614 36.42C97.4214 35.7 97.8014 34.6 97.8014 33.12V30.54C97.2614 31.32 96.5114 31.97 95.5514 32.49C94.6114 33.01 93.5314 33.27 92.3114 33.27C90.9114 33.27 89.6314 32.91 88.4714 32.19C87.3114 31.47 86.3914 30.46 85.7114 29.16C85.0514 27.84 84.7214 26.33 84.7214 24.63C84.7214 22.95 85.0514 21.46 85.7114 20.16C86.3914 18.86 87.3014 17.86 88.4414 17.16C89.6014 16.46 90.8914 16.11 92.3114 16.11ZM97.8014 24.69C97.8014 23.67 97.6014 22.8 97.2014 22.08C96.8014 21.34 96.2614 20.78 95.5814 20.4C94.9014 20 94.1714 19.8 93.3914 19.8C92.6114 19.8 91.8914 19.99 91.2314 20.37C90.5714 20.75 90.0314 21.31 89.6114 22.05C89.2114 22.77 89.0114 23.63 89.0114 24.63C89.0114 25.63 89.2114 26.51 89.6114 27.27C90.0314 28.01 90.5714 28.58 91.2314 28.98C91.9114 29.38 92.6314 29.58 93.3914 29.58C94.1714 29.58 94.9014 29.39 95.5814 29.01C96.2614 28.61 96.8014 28.05 97.2014 27.33C97.6014 26.59 97.8014 25.71 97.8014 24.69ZM113.513 33.27C111.913 33.27 110.473 32.92 109.193 32.22C107.913 31.5 106.903 30.49 106.163 29.19C105.443 27.89 105.083 26.39 105.083 24.69C105.083 22.99 105.453 21.49 106.193 20.19C106.953 18.89 107.983 17.89 109.283 17.19C110.583 16.47 112.033 16.11 113.633 16.11C115.233 16.11 116.683 16.47 117.983 17.19C119.283 17.89 120.303 18.89 121.043 20.19C121.803 21.49 122.183 22.99 122.183 24.69C122.183 26.39 121.793 27.89 121.013 29.19C120.253 30.49 119.213 31.5 117.893 32.22C116.593 32.92 115.133 33.27 113.513 33.27ZM113.513 29.61C114.273 29.61 114.983 29.43 115.643 29.07C116.323 28.69 116.863 28.13 117.263 27.39C117.663 26.65 117.863 25.75 117.863 24.69C117.863 23.11 117.443 21.9 116.603 21.06C115.783 20.2 114.773 19.77 113.573 19.77C112.373 19.77 111.363 20.2 110.543 21.06C109.743 21.9 109.343 23.11 109.343 24.69C109.343 26.27 109.733 27.49 110.513 28.35C111.313 29.19 112.313 29.61 113.513 29.61Z" fill="white"/>
</svg>
