<svg width="128" height="37" viewBox="0 0 128 37" fill="none" xmlns="http://www.w3.org/2000/svg">
<path d="M11.0757 13.78C11.6157 13.02 12.3557 12.39 13.2957 11.89C14.2557 11.37 15.3457 11.11 16.5657 11.11C17.9857 11.11 19.2657 11.46 20.4057 12.16C21.5657 12.86 22.4757 13.86 23.1357 15.16C23.8157 16.44 24.1557 17.93 24.1557 19.63C24.1557 21.33 23.8157 22.84 23.1357 24.16C22.4757 25.46 21.5657 26.47 20.4057 27.19C19.2657 27.91 17.9857 28.27 16.5657 28.27C15.3457 28.27 14.2657 28.02 13.3257 27.52C12.4057 27.02 11.6557 26.39 11.0757 25.63V35.92H6.87566V11.38H11.0757V13.78ZM19.8657 19.63C19.8657 18.63 19.6557 17.77 19.2357 17.05C18.8357 16.31 18.2957 15.75 17.6157 15.37C16.9557 14.99 16.2357 14.8 15.4557 14.8C14.6957 14.8 13.9757 15 13.2957 15.4C12.6357 15.78 12.0957 16.34 11.6757 17.08C11.2757 17.82 11.0757 18.69 11.0757 19.69C11.0757 20.69 11.2757 21.56 11.6757 22.3C12.0957 23.04 12.6357 23.61 13.2957 24.01C13.9757 24.39 14.6957 24.58 15.4557 24.58C16.2357 24.58 16.9557 24.38 17.6157 23.98C18.2957 23.58 18.8357 23.01 19.2357 22.27C19.6557 21.53 19.8657 20.65 19.8657 19.63ZM34.5877 28.27C32.9877 28.27 31.5477 27.92 30.2677 27.22C28.9877 26.5 27.9777 25.49 27.2377 24.19C26.5177 22.89 26.1577 21.39 26.1577 19.69C26.1577 17.99 26.5277 16.49 27.2677 15.19C28.0277 13.89 29.0577 12.89 30.3577 12.19C31.6577 11.47 33.1077 11.11 34.7077 11.11C36.3077 11.11 37.7577 11.47 39.0577 12.19C40.3577 12.89 41.3777 13.89 42.1177 15.19C42.8777 16.49 43.2577 17.99 43.2577 19.69C43.2577 21.39 42.8677 22.89 42.0877 24.19C41.3277 25.49 40.2877 26.5 38.9677 27.22C37.6677 27.92 36.2077 28.27 34.5877 28.27ZM34.5877 24.61C35.3477 24.61 36.0577 24.43 36.7177 24.07C37.3977 23.69 37.9377 23.13 38.3377 22.39C38.7377 21.65 38.9377 20.75 38.9377 19.69C38.9377 18.11 38.5177 16.9 37.6777 16.06C36.8577 15.2 35.8477 14.77 34.6477 14.77C33.4477 14.77 32.4377 15.2 31.6177 16.06C30.8177 16.9 30.4177 18.11 30.4177 19.69C30.4177 21.27 30.8077 22.49 31.5877 23.35C32.3877 24.19 33.3877 24.61 34.5877 24.61ZM50.5386 13.78C51.0786 13.02 51.8186 12.39 52.7586 11.89C53.7186 11.37 54.8086 11.11 56.0286 11.11C57.4486 11.11 58.7286 11.46 59.8686 12.16C61.0286 12.86 61.9386 13.86 62.5986 15.16C63.2786 16.44 63.6186 17.93 63.6186 19.63C63.6186 21.33 63.2786 22.84 62.5986 24.16C61.9386 25.46 61.0286 26.47 59.8686 27.19C58.7286 27.91 57.4486 28.27 56.0286 28.27C54.8086 28.27 53.7286 28.02 52.7886 27.52C51.8686 27.02 51.1186 26.39 50.5386 25.63V35.92H46.3386V11.38H50.5386V13.78ZM59.3286 19.63C59.3286 18.63 59.1186 17.77 58.6986 17.05C58.2986 16.31 57.7586 15.75 57.0786 15.37C56.4186 14.99 55.6986 14.8 54.9186 14.8C54.1586 14.8 53.4386 15 52.7586 15.4C52.0986 15.78 51.5586 16.34 51.1386 17.08C50.7386 17.82 50.5386 18.69 50.5386 19.69C50.5386 20.69 50.7386 21.56 51.1386 22.3C51.5586 23.04 52.0986 23.61 52.7586 24.01C53.4386 24.39 54.1586 24.58 54.9186 24.58C55.6986 24.58 56.4186 24.38 57.0786 23.98C57.7586 23.58 58.2986 23.01 58.6986 22.27C59.1186 21.53 59.3286 20.65 59.3286 19.63ZM74.0506 28.27C72.4506 28.27 71.0106 27.92 69.7306 27.22C68.4506 26.5 67.4406 25.49 66.7006 24.19C65.9806 22.89 65.6206 21.39 65.6206 19.69C65.6206 17.99 65.9906 16.49 66.7306 15.19C67.4906 13.89 68.5206 12.89 69.8206 12.19C71.1206 11.47 72.5706 11.11 74.1706 11.11C75.7706 11.11 77.2206 11.47 78.5206 12.19C79.8206 12.89 80.8406 13.89 81.5806 15.19C82.3406 16.49 82.7206 17.99 82.7206 19.69C82.7206 21.39 82.3306 22.89 81.5506 24.19C80.7906 25.49 79.7506 26.5 78.4306 27.22C77.1306 27.92 75.6706 28.27 74.0506 28.27ZM74.0506 24.61C74.8106 24.61 75.5206 24.43 76.1806 24.07C76.8606 23.69 77.4006 23.13 77.8006 22.39C78.2006 21.65 78.4006 20.75 78.4006 19.69C78.4006 18.11 77.9806 16.9 77.1406 16.06C76.3206 15.2 75.3106 14.77 74.1106 14.77C72.9106 14.77 71.9006 15.2 71.0806 16.06C70.2806 16.9 69.8806 18.11 69.8806 19.69C69.8806 21.27 70.2706 22.49 71.0506 23.35C71.8506 24.19 72.8506 24.61 74.0506 24.61ZM92.3114 11.11C93.5514 11.11 94.6414 11.36 95.5814 11.86C96.5214 12.34 97.2614 12.97 97.8014 13.75V11.38H102.031V28.12C102.031 29.66 101.721 31.03 101.101 32.23C100.481 33.45 99.5514 34.41 98.3114 35.11C97.0714 35.83 95.5714 36.19 93.8114 36.19C91.4514 36.19 89.5114 35.64 87.9914 34.54C86.4914 33.44 85.6414 31.94 85.4414 30.04H89.6114C89.8314 30.8 90.3014 31.4 91.0214 31.84C91.7614 32.3 92.6514 32.53 93.6914 32.53C94.9114 32.53 95.9014 32.16 96.6614 31.42C97.4214 30.7 97.8014 29.6 97.8014 28.12V25.54C97.2614 26.32 96.5114 26.97 95.5514 27.49C94.6114 28.01 93.5314 28.27 92.3114 28.27C90.9114 28.27 89.6314 27.91 88.4714 27.19C87.3114 26.47 86.3914 25.46 85.7114 24.16C85.0514 22.84 84.7214 21.33 84.7214 19.63C84.7214 17.95 85.0514 16.46 85.7114 15.16C86.3914 13.86 87.3014 12.86 88.4414 12.16C89.6014 11.46 90.8914 11.11 92.3114 11.11ZM97.8014 19.69C97.8014 18.67 97.6014 17.8 97.2014 17.08C96.8014 16.34 96.2614 15.78 95.5814 15.4C94.9014 15 94.1714 14.8 93.3914 14.8C92.6114 14.8 91.8914 14.99 91.2314 15.37C90.5714 15.75 90.0314 16.31 89.6114 17.05C89.2114 17.77 89.0114 18.63 89.0114 19.63C89.0114 20.63 89.2114 21.51 89.6114 22.27C90.0314 23.01 90.5714 23.58 91.2314 23.98C91.9114 24.38 92.6314 24.58 93.3914 24.58C94.1714 24.58 94.9014 24.39 95.5814 24.01C96.2614 23.61 96.8014 23.05 97.2014 22.33C97.6014 21.59 97.8014 20.71 97.8014 19.69ZM113.513 28.27C111.913 28.27 110.473 27.92 109.193 27.22C107.913 26.5 106.903 25.49 106.163 24.19C105.443 22.89 105.083 21.39 105.083 19.69C105.083 17.99 105.453 16.49 106.193 15.19C106.953 13.89 107.983 12.89 109.283 12.19C110.583 11.47 112.033 11.11 113.633 11.11C115.233 11.11 116.683 11.47 117.983 12.19C119.283 12.89 120.303 13.89 121.043 15.19C121.803 16.49 122.183 17.99 122.183 19.69C122.183 21.39 121.793 22.89 121.013 24.19C120.253 25.49 119.213 26.5 117.893 27.22C116.593 27.92 115.133 28.27 113.513 28.27ZM113.513 24.61C114.273 24.61 114.983 24.43 115.643 24.07C116.323 23.69 116.863 23.13 117.263 22.39C117.663 21.65 117.863 20.75 117.863 19.69C117.863 18.11 117.443 16.9 116.603 16.06C115.783 15.2 114.773 14.77 113.573 14.77C112.373 14.77 111.363 15.2 110.543 16.06C109.743 16.9 109.343 18.11 109.343 19.69C109.343 21.27 109.733 22.49 110.513 23.35C111.313 24.19 112.313 24.61 113.513 24.61Z" fill="#50505F"/>
</svg>
