<svg width="655" height="60" viewBox="0 0 655 60" fill="none" xmlns="http://www.w3.org/2000/svg">
<path d="M14.3827 18.2105C14.3827 22.0732 13.9427 23.7652 9.73067 23.7652H3.59067V12.7345H9.73067C13.5133 12.7345 14.3827 13.7585 14.3827 18.2105ZM10.1853 9.71183H0V36.6825H3.59067V26.7892H10.2667C16.8173 26.7892 18.0147 23.8865 18.0147 18.1718C18.0147 15.8145 17.8493 13.4212 16.644 11.8732C15.4947 10.3985 13.4427 9.71183 10.1853 9.71183Z" fill="#808080"/>
<path d="M34.6522 27.0831C34.6522 32.6325 34.0042 34.2458 29.7108 34.2458C25.8828 34.2458 24.7695 33.3058 24.7695 27.0831C24.7695 21.5338 25.4175 19.9191 29.7108 19.9191C33.5388 19.9191 34.6522 20.8605 34.6522 27.0831ZM29.7108 17.0125C26.2788 17.0125 24.0695 17.8671 22.7602 19.7018C21.6522 21.2551 21.1788 23.4631 21.1788 27.0831C21.1788 30.7031 21.6522 32.9111 22.7602 34.4631C24.0708 36.2978 26.2788 37.1525 29.7108 37.1525C33.1428 37.1525 35.3508 36.2978 36.6615 34.4631C37.7695 32.9111 38.2428 30.7031 38.2428 27.0831C38.2428 23.4631 37.7695 21.2551 36.6615 19.7018C35.3522 17.8671 33.1428 17.0125 29.7108 17.0125Z" fill="#808080"/>
<path d="M60.453 33.2052L56.0197 18.0252L56.0077 17.9825H52.025L47.5797 33.2052L44.537 18.0305L44.5277 17.9825H41.3517L45.3357 36.6345L45.3464 36.6825H49.5597L54.0157 21.0838L58.461 36.6385L58.473 36.6825H62.6863L66.6637 18.0545L66.6797 17.9825H63.505L60.453 33.2052Z" fill="#808080"/>
<path d="M73.7075 25.0022C73.7075 21.3076 75.0675 19.8009 78.3995 19.8009C81.4408 19.8009 82.6808 21.0236 82.6808 24.0209V25.5316H73.7075V25.0022ZM78.3995 17.0129C75.1968 17.0129 73.0101 17.8769 71.7128 19.6529C70.6088 21.1662 70.1155 23.3009 70.1155 26.5729C70.1155 30.0142 70.3541 32.6716 71.5208 34.4516C72.7261 36.2929 74.8341 37.1129 78.3581 37.1129C80.6995 37.1129 83.6981 36.7262 85.6488 36.1689L85.6955 36.1556L85.4795 33.3249L85.4075 33.3462C83.3888 33.9596 80.4475 34.3249 78.7728 34.3249C75.2701 34.3249 73.7075 33.5516 73.7075 28.9676V28.2022H86.1888V26.4942C86.1888 24.0702 86.0261 21.3502 84.8101 19.5569C83.6341 17.8209 81.5968 17.0129 78.3995 17.0129Z" fill="#808080"/>
<path d="M94.5062 19.7116L94.2302 17.4969L94.2235 17.4449H91.0529V36.6823H94.5609V22.7956C96.5835 21.4449 98.7769 20.5969 101.081 20.2716L101.133 20.2649V16.9609L101.062 16.9743C98.4302 17.4583 96.4035 18.3036 94.5062 19.7116Z" fill="#808080"/>
<path d="M107.414 25.0022C107.414 21.3076 108.774 19.8009 112.107 19.8009C115.147 19.8009 116.387 21.0236 116.387 24.0209V25.5316H107.414V25.0022ZM112.107 17.0129C108.904 17.0129 106.718 17.8769 105.42 19.6529C104.316 21.1662 103.823 23.3009 103.823 26.5729C103.823 30.0142 104.062 32.6716 105.228 34.4516C106.432 36.2929 108.542 37.1129 112.066 37.1129C114.407 37.1129 117.404 36.7249 119.355 36.1689L119.402 36.1556L119.187 33.3249L119.115 33.3462C117.095 33.9596 114.154 34.3249 112.479 34.3249C108.976 34.3249 107.414 33.5516 107.414 28.9676V28.2022H119.895V26.4942C119.895 24.0702 119.732 21.3502 118.516 19.5569C117.34 17.8209 115.304 17.0129 112.107 17.0129Z" fill="#808080"/>
<path d="M136.819 32.0035C135.588 33.1635 133.331 34.4035 131.257 34.4035C127.943 34.4035 127.596 32.1728 127.596 27.0835C127.596 22.1395 127.756 19.7621 131.34 19.7621C132.929 19.7621 134.924 20.0301 136.819 20.4955V32.0035ZM136.819 17.5861C135.252 17.2408 133.443 17.0515 131.712 17.0515C125.171 17.0515 124.007 19.6808 124.007 27.0835C124.007 30.6541 124.217 33.3648 125.245 34.9861C126.204 36.4968 127.813 37.1141 130.803 37.1141C132.905 37.1141 135.381 36.2235 137.001 34.8901L137.275 36.6315L137.281 36.6821H140.327V8.6808L136.819 9.25013V17.5861Z" fill="#808080"/>
<path d="M163.616 34.4036C162.549 34.4036 161.204 34.2769 159.502 34.0196V21.1156C161.484 20.2689 163.328 19.8396 164.98 19.8396C168.197 19.8396 168.517 21.9369 168.517 27.0836C168.517 31.2302 168.156 34.4036 163.616 34.4036ZM165.6 17.0129C162.824 17.0129 160.322 17.8836 159.502 18.2022V8.68092L155.993 9.24892V36.5169L156.045 36.5249C158.674 36.9262 162.117 37.1129 163.616 37.1129C170.754 37.1129 172.106 33.5876 172.106 27.0836C172.106 20.2596 171.134 17.0129 165.6 17.0129Z" fill="#808080"/>
<path d="M189.074 17.4444L183.868 32.0111L178.469 17.4831L178.454 17.4444H174.605L182.11 36.7391L178.944 44.4537H182.462L192.81 17.5257L192.841 17.4444H189.074Z" fill="#808080"/>
<path d="M443.998 21.444V25.3347C443.998 35.356 443.558 40.5867 434.112 40.5867C424.666 40.5867 424.226 35.356 424.226 25.3347V21.444C424.226 11.4227 424.666 6.192 434.112 6.192C443.558 6.192 443.998 11.4227 443.998 21.444ZM416.828 21.376V25.4027C416.828 38.9413 419.654 46.776 434.112 46.776C448.569 46.776 451.397 38.9413 451.397 25.4027V21.376C451.397 7.83733 448.569 0 434.112 0C419.654 0 416.828 7.83733 416.828 21.376Z" fill="#333333"/>
<path d="M473.75 41.1903C471.693 41.1903 469.322 40.849 466.698 40.1757L466.478 40.1197V21.9237L466.569 21.837C468.249 20.2277 471.225 18.6023 474.085 18.6023C479.362 18.6023 479.743 22.8703 479.743 29.897C479.743 36.9237 479.338 41.1903 473.75 41.1903ZM475.625 13.0824C472.345 13.0824 468.678 14.345 466.286 16.3023L465.922 16.5997L465.265 13.6863H459.417V59.817L466.478 58.889V45.8437L466.826 45.9117C469.826 46.493 472.463 46.777 474.889 46.777C485.886 46.777 486.805 38.4383 486.805 29.897C486.805 20.369 485.981 13.0824 475.625 13.0824Z" fill="#333333"/>
<path d="M513.261 27.3712H500.737V26.2072C500.737 20.7352 502.691 18.3992 507.267 18.3992C511.467 18.3992 513.261 20.4552 513.261 25.2672V27.3712ZM507.335 13.0165C495.941 13.0165 493.607 19.6032 493.607 29.4925C493.607 40.7018 495.773 46.7765 507.199 46.7765C511.009 46.7765 515.781 46.1498 519.435 45.1752L519.013 39.6685C515.526 40.6778 511.327 41.3232 508.207 41.3232C502.483 41.3232 500.737 39.4525 500.737 33.3178V32.1525H520.055V28.6872C520.055 19.0125 517.927 13.0165 507.335 13.0165Z" fill="#333333"/>
<path d="M535.292 16.6645L534.963 16.8565L534.116 13.6859H528.194V46.0392H535.255V22.5525L535.4 22.4685C537.976 20.9459 541.851 19.4072 544.268 19.4072C546.464 19.4072 547.578 20.6352 547.578 23.0552V46.0392H554.642V21.4432C554.642 15.6938 552.242 13.0165 547.087 13.0165C542.996 13.0165 538.178 14.9805 535.292 16.6645Z" fill="#333333"/>
<path d="M574.688 28.8468L574.807 28.4682L581.46 7.18016L588.159 28.8468H574.688ZM577.241 0.738831L562.008 46.0402H569.373L572.995 34.5682H589.921L589.987 34.7722L593.545 46.0402H601.18L586.012 0.738831H577.241Z" fill="#333333"/>
<path d="M623.702 24.0159H614.689V6.92792H623.433C629.525 6.92792 630.499 8.94125 630.499 15.4066C630.499 21.2586 629.829 24.0159 623.702 24.0159ZM624.909 0.738586H607.491V46.0399H614.689V30.1399H624.909C635.715 30.1399 637.765 24.9399 637.765 15.3386C637.765 6.79058 636.843 0.738586 624.909 0.738586Z" fill="#333333"/>
<path d="M654.659 0.234825H647.461V45.5363H654.659V0.234825Z" fill="#333333"/>
<path d="M239.434 6.00049V23.5392L227.415 6.00049H214.432V40.7765H227.374V23.2232L239.39 40.7765H252.376V6.00049H239.434Z" fill="#00C73C"/>
<path d="M384.926 20.6802C384.17 21.2936 382.716 21.5962 381.512 21.5962H378.734V14.7442H381.458C382.766 14.7442 384.256 15.0602 384.978 15.6802C385.697 16.3082 386.034 17.1549 386.034 18.2349C386.034 19.2589 385.68 20.0776 384.926 20.6802ZM391.284 27.7669C395.882 26.4842 398.849 23.1642 398.849 17.8336C398.849 8.87491 391.741 6.00024 382.374 6.00024H366.202V40.7762H379.148V29.9122L386.874 40.7762H401.75L391.284 27.7669Z" fill="#00C73C"/>
<path d="M334.655 6.00049H360.895V15.0538H347.474V19.1445H359.839V27.6978H347.474V31.7192H361.303V40.7765H334.655V6.00049Z" fill="#00C73C"/>
<path d="M272.932 28.1915L275.975 16.7208H276.332L279.378 28.1915H272.932ZM283.534 6.00085H268.774L255.154 40.7755H269.55L270.808 36.2302H281.503L282.763 40.7755H297.156L283.534 6.00085Z" fill="#00C73C"/>
<path d="M317.763 6.00049L311.383 26.9618H311.023L304.647 6.00049H290.531L305.091 40.7765H317.313L331.88 6.00049H317.763Z" fill="#00C73C"/>
</svg>
