<svg width="655" height="60" viewBox="0 0 655 60" fill="none" xmlns="http://www.w3.org/2000/svg">
<path d="M14.3816 18.2105C14.3816 22.073 13.9405 23.7654 9.72925 23.7654H3.58975V12.7356H9.72925C13.5118 12.7356 14.3816 13.7571 14.3816 18.2105ZM10.1846 9.71199H0V36.6823H3.58975V26.789H10.2667C16.8165 26.789 18.0144 23.8864 18.0144 18.1715C18.0144 15.8146 17.8482 13.4207 16.6421 11.874C15.4934 10.3992 13.4421 9.71199 10.1846 9.71199" fill="white"/>
<path d="M34.6512 27.0836C34.6512 32.6323 34.003 34.2466 29.7096 34.2466C25.8819 34.2466 24.7681 33.3051 24.7681 27.0836C24.7681 21.5348 25.4163 19.9205 29.7096 19.9205C33.5373 19.9205 34.6512 20.8599 34.6512 27.0836ZM29.7096 17.0138C26.2778 17.0138 24.0686 17.8671 22.7599 19.703C21.6501 21.2558 21.1783 23.463 21.1783 27.0836C21.1783 30.7041 21.6501 32.9113 22.7599 34.4641C24.0686 36.2979 26.2778 37.1533 29.7096 37.1533C33.1415 37.1533 35.3507 36.2979 36.6615 34.4641C37.7692 32.9113 38.241 30.7041 38.241 27.0836C38.241 23.463 37.7692 21.2558 36.6615 19.703C35.3507 17.8671 33.1415 17.0138 29.7096 17.0138Z" fill="white"/>
<path d="M60.4522 33.2052L56.0193 18.0257L56.007 17.9826H52.0255L47.5783 33.2052L44.5362 18.0298L44.526 17.9826H41.3506L45.3362 36.6349L45.3444 36.6821H49.5578L54.0152 21.0841L58.4604 36.6391L58.4727 36.6821H62.686L66.6635 18.0544L66.6799 17.9826H63.5045L60.4522 33.2052Z" fill="white"/>
<path d="M73.7067 25.0027C73.7067 21.3083 75.0667 19.8006 78.4 19.8006C81.44 19.8006 82.679 21.0232 82.679 24.0222V25.5319H73.7067V25.0027ZM78.4 17.0129C75.1959 17.0129 73.0092 17.8765 71.7128 19.6529C70.6072 21.1668 70.1149 23.3022 70.1149 26.574C70.1149 30.014 70.3528 32.6725 71.52 34.453C72.7241 36.293 74.8328 37.1135 78.3569 37.1135C80.6975 37.1135 83.6964 36.7258 85.6493 36.1699L85.6944 36.1556L85.479 33.3248L85.4072 33.3473C83.3888 33.9586 80.4472 34.3258 78.7713 34.3258C75.2698 34.3258 73.7067 33.5525 73.7067 28.9678V28.2027H86.1888V26.494C86.1888 24.0714 86.0247 21.3514 84.8082 19.5565C83.6329 17.8211 81.5959 17.0129 78.4 17.0129" fill="white"/>
<path d="M94.5054 19.7118L94.2285 17.4964L94.2223 17.4452H91.051V36.6821H94.5608V22.797C96.5833 21.4452 98.7762 20.5959 101.08 20.2718L101.131 20.2636V16.9611L101.061 16.9754C98.4295 17.4575 96.4028 18.3026 94.5054 19.7118Z" fill="white"/>
<path d="M107.413 25.0027C107.413 21.3083 108.773 19.8006 112.106 19.8006C115.146 19.8006 116.385 21.0232 116.385 24.0222V25.5319H107.413V25.0027ZM112.106 17.0129C108.904 17.0129 106.717 17.8765 105.419 19.6529C104.315 21.1668 103.823 23.3022 103.823 26.574C103.823 30.014 104.061 32.6725 105.226 34.453C106.432 36.293 108.541 37.1135 112.065 37.1135C114.406 37.1135 117.405 36.7258 119.355 36.1699L119.401 36.1556L119.185 33.3248L119.115 33.3473C117.095 33.9586 114.153 34.3258 112.478 34.3258C108.976 34.3258 107.413 33.5525 107.413 28.9678V28.2027H119.895V26.494C119.895 24.0714 119.731 21.3514 118.514 19.5565C117.339 17.8211 115.302 17.0129 112.106 17.0129" fill="white"/>
<path d="M136.818 32.0037C135.587 33.1627 133.331 34.4038 131.257 34.4038C127.942 34.4038 127.595 32.174 127.595 27.0827C127.595 22.1391 127.755 19.7617 131.339 19.7617C132.929 19.7617 134.923 20.0304 136.818 20.496V32.0037ZM136.818 17.5853C135.253 17.2406 133.442 17.0519 131.71 17.0519C125.171 17.0519 124.006 19.6796 124.006 27.0827C124.006 30.654 124.217 33.3658 125.245 34.9863C126.203 36.4981 127.813 37.1135 130.802 37.1135C132.904 37.1135 135.38 36.2232 137.001 34.8899L137.273 36.6315L137.282 36.6827H140.326V8.68061L136.818 9.24882V17.5853Z" fill="white"/>
<path d="M163.615 34.4041C162.548 34.4041 161.203 34.2769 159.502 34.0205V21.1159C161.484 20.2687 163.326 19.84 164.979 19.84C168.195 19.84 168.515 21.9364 168.515 27.0831C168.515 31.2308 168.154 34.4041 163.615 34.4041ZM165.598 17.0133C162.823 17.0133 160.321 17.8851 159.502 18.2031V8.68099L155.992 9.2492V36.517L156.044 36.5252C158.673 36.9272 162.117 37.1139 163.615 37.1139C170.753 37.1139 172.105 33.5877 172.105 27.0831C172.105 20.2605 171.133 17.0133 165.598 17.0133" fill="white"/>
<path d="M189.074 17.4448L183.868 32.011L178.469 17.4838L178.454 17.4448H174.604L182.11 36.7392L178.942 44.4541H182.462L192.809 17.5268L192.84 17.4448H189.074Z" fill="white"/>
<path d="M443.998 21.4442V25.3355C443.998 35.356 443.559 40.5868 434.113 40.5868C424.665 40.5868 424.226 35.356 424.226 25.3355V21.4442C424.226 11.4236 424.665 6.19284 434.113 6.19284C443.559 6.19284 443.998 11.4236 443.998 21.4442ZM416.827 21.3765V25.4031C416.827 38.9416 419.656 46.7776 434.113 46.7776C448.571 46.7776 451.397 38.9416 451.397 25.4031V21.3765C451.397 7.83797 448.571 2.89921e-06 434.113 2.89921e-06C419.656 2.89921e-06 416.827 7.83797 416.827 21.3765" fill="white"/>
<path d="M473.75 41.1905C471.693 41.1905 469.321 40.8479 466.698 40.1751L466.478 40.1197V21.9228L466.569 21.8366C468.249 20.2284 471.225 18.6038 474.085 18.6038C479.363 18.6038 479.744 22.8705 479.744 29.8961C479.744 36.9238 479.338 41.1905 473.75 41.1905ZM475.625 13.0817C472.345 13.0817 468.679 14.3453 466.288 16.3022L465.922 16.5997L465.264 13.6848H459.418V59.8162L466.478 58.889V45.8428L466.827 45.9105C469.826 46.4931 472.464 46.7762 474.889 46.7762C485.886 46.7762 486.805 38.4377 486.805 29.8961C486.805 20.3679 485.982 13.0817 475.625 13.0817" fill="white"/>
<path d="M513.261 27.3714H500.738V26.2063C500.738 20.7355 502.693 18.3991 507.267 18.3991C511.468 18.3991 513.261 20.4545 513.261 25.2668V27.3714ZM507.337 13.0165C495.942 13.0165 493.608 19.6032 493.608 29.4925C493.608 40.7028 495.774 46.7766 507.199 46.7766C511.009 46.7766 515.782 46.151 519.435 45.1746L519.013 39.6689C515.528 40.6781 511.327 41.3243 508.209 41.3243C502.483 41.3243 500.738 39.4535 500.738 33.3181V32.153H520.057V28.6884C520.057 19.0124 517.928 13.0165 507.337 13.0165" fill="white"/>
<path d="M535.292 16.6649L534.962 16.8556L534.117 13.6864H528.193V46.0393H535.256V22.5521L535.399 22.468C537.978 20.9459 541.85 19.4074 544.269 19.4074C546.464 19.4074 547.578 20.6362 547.578 23.0546V46.0393H554.642V21.4444C554.642 15.6946 552.242 13.0177 547.087 13.0177C542.997 13.0177 538.179 14.9808 535.292 16.6649Z" fill="white"/>
<path d="M574.689 28.8471L574.808 28.4676L581.46 7.18142L588.16 28.8471H574.689ZM577.243 0.738325L562.008 46.041H569.374L572.996 34.5682H589.922L589.987 34.7712L593.546 46.041H601.181L586.014 0.738325H577.243Z" fill="white"/>
<path d="M623.702 24.0163H614.689V6.92911H623.434C629.524 6.92911 630.5 8.94142 630.5 15.4071C630.5 21.2594 629.83 24.0163 623.702 24.0163ZM624.909 0.738325H607.491V46.041H614.689V30.1394H624.909C635.717 30.1394 637.764 24.9394 637.764 15.3394C637.764 6.78962 636.843 0.738325 624.909 0.738325" fill="white"/>
<path d="M654.66 0.235407H647.462V45.536H654.66V0.235407Z" fill="white"/>
<path d="M239.433 6.00054V23.539L227.415 6.00054H214.432V40.776H227.374V23.2231L239.39 40.776H252.375V6.00054H239.433Z" fill="#00C73C"/>
<path d="M384.926 20.6803C384.169 21.2936 382.717 21.5952 381.511 21.5952H378.736V14.7439H381.458C382.766 14.7439 384.256 15.0598 384.978 15.6813C385.696 16.309 386.034 17.1541 386.034 18.2352C386.034 19.2587 385.681 20.0772 384.926 20.6803ZM391.283 27.7675C395.882 26.4834 398.849 23.1644 398.849 17.8331C398.849 8.87514 391.741 6.00128 382.375 6.00128H366.202V40.7767H379.148V29.9131L386.875 40.7767H401.751L391.283 27.7675Z" fill="#00C73C"/>
<path d="M334.655 6.00054H360.895V15.0549H347.474V19.1431H359.839V27.697H347.474V31.7196H361.303V40.776H334.655V6.00054Z" fill="#00C73C"/>
<path d="M272.932 28.1917L275.974 16.7209H276.331L279.377 28.1917H272.932ZM283.533 6.00091H268.774L255.154 40.7764H269.55L270.809 36.2307H281.502L282.762 40.7764H297.156L283.533 6.00091Z" fill="#00C73C"/>
<path d="M317.762 6.00054L311.381 26.9626H311.022L304.646 6.00054H290.531L305.089 40.776H317.313L331.879 6.00054H317.762Z" fill="#00C73C"/>
</svg>
